<svg width="256px" height="256px" version="1.1" viewbox="0 0 256 256" ><path d="M200.418,90.485c22.961,-22.203 35.307,-49.868 35.307,-80.489c0,-1.535 0,-3.446 -0.38,-5.74l-1.19,0.767c-2.371,4.589 -3.974,7.651 -5.156,9.946c-2.363,4.213 -6.329,10.346 -11.451,18.773c-3.569,4.213 -5.958,7.259 -7.915,9.186l-11.873,13.016c-6.312,6.884 -8.7,8.419 -14.245,8.419l-54.749,0l-54.749,0c-5.553,0 -7.924,-1.535 -14.253,-8.419l-11.864,-13.016c-1.975,-1.927 -4.338,-4.973 -7.907,-9.186c-5.148,-8.427 -9.089,-14.56 -11.477,-18.773c-1.189,-2.295 -2.768,-5.357 -5.147,-9.954l-1.224,-0.768c-0.388,2.295 -0.388,4.214 -0.388,5.741c0,30.621 12.379,58.311 35.341,80.505l-35.332,-0.017l35.34,42.747l0,85.478l21.215,0l50.437,33.267l50.42,-33.267l21.248,0l0,-85.469l35.358,-42.747l-35.366,0Z" style="fill:#fa6332;fill-rule:nonzero;"/><path d="M97.577,184.856c-3.357,0 -5.968,-2.705 -5.968,-6.062l0,-48.4c0,-3.357 2.705,-6.061 5.968,-6.061c3.264,0 5.969,2.704 5.969,6.061l0,48.4c0.093,3.357 -2.611,6.062 -5.969,6.062Z" style="fill:#fff;fill-rule:nonzero;"/><path d="M150.92,153.895l17.532,-20.143c2.145,-2.518 1.958,-6.342 -0.56,-8.58c-2.518,-2.238 -6.248,-1.958 -8.486,0.56l-16.506,19.024l-16.507,-19.024c-2.144,-2.518 -5.968,-2.798 -8.486,-0.56c-2.518,2.238 -2.704,6.062 -0.559,8.58l17.532,20.236l-17.532,20.143c-2.145,2.518 -1.959,6.342 0.559,8.58c1.119,1.026 2.518,1.492 3.917,1.492c1.679,0 3.357,-0.653 4.569,-2.052l16.507,-19.024l16.506,19.024c1.212,1.399 2.891,2.052 4.57,2.052c1.398,0 2.797,-0.466 3.916,-1.492c2.518,-2.238 2.705,-6.062 0.56,-8.58l-17.532,-20.236Z" style="fill:#fff;fill-rule:nonzero;"/></svg>